# xmcd
#
# Track frame offsets: 
#        150
#        21970
#        53376
#        86041
#        125593
#        140011
#        167031
#        202561
#        240045
#        271025
#        303653
#        332535
#
# Disc length: 4763 seconds
#
# Revision: 1
# Processed by: cddbd v1.5.2PL0 Copyright (c) Steve Scherf et al.
# Submitted via: ExactAudioCopy v0.95a3
#
DISCID=9212990c
DTITLE=Various Artist - Night Escape @ The Pool "Mai Tai"
DYEAR=2005
DGENRE=Acid Jazz
TTITLE0=Skalpel - Sculpture
TTITLE1=I.Cube - Adore
TTITLE2=J.O.Y. - Sphere feat. Takao Tajiman (Alt Mix)
TTITLE3=Black Mighty Orchestra - Ocean Beach (Cypobophonia Cinematic R
TTITLE3=emix)
TTITLE4=Bahia Sunsets - Carnival of Colors
TTITLE5=Scuba - Swell (King Britt's Original Mix)
TTITLE6=Doctor Rockit - Veselka's Diner
TTITLE7=Calm Presents K.F. - Come Fly With Me (12" Special 125 Version
TTITLE7=)
TTITLE8=Little Big Bee - Beijing Duck
TTITLE9=Hajime Yoshizawa - I Am With You (Main Mix)
TTITLE10=Tokyo Black Star Featuring Yurai - Rainbow
TTITLE11=Sunaga T. Experience - Slip Away
EXTD=YEAR: 2005
EXTT0=
EXTT1=
EXTT2=
EXTT3=
EXTT4=
EXTT5=
EXTT6=
EXTT7=
EXTT8=
EXTT9=
EXTT10=
EXTT11=
PLAYORDER=
